{
  "accessors": [
    {
      "bufferView": 2,
      "componentType": 5126,
      "count": 40843,
      "max": [
        1.596019983291626,
        0.5762500166893005,
        4.777639865875244
      ],
      "min": [
        -1.808109998703003,
        -0.5565900206565857,
        0.005309999920427799
      ],
      "type": "VEC3"
    },
    {
      "bufferView": 2,
      "byteOffset": 490116,
      "componentType": 5126,
      "count": 40843,
      "max": [
        0.9999520182609558,
        1.0,
        1.0
      ],
      "min": [
        -0.9999768137931824,
        -1.0,
        -1.0
      ],
      "type": "VEC3"
    },
    {
      "bufferView": 3,
      "componentType": 5126,
      "count": 40843,
      "max": [
        0.9999992251396179,
        0.9999869465827942,
        0.9999727010726929,
        1.0
      ],
      "min": [
        -0.9999643564224243,
        -0.9999826550483704,
        -0.9999718070030212,
        -1.0
      ],
      "type": "VEC4"
    },
    {
      "bufferView": 1,
      "componentType": 5126,
      "count": 40843,
      "max": [
        1.0000499486923218,
        0.9988300204277039
      ],
      "min": [
        0.0009899999713525176,
        0.001610000035725534
      ],
      "type": "VEC2"
    },
    {
      "bufferView": 0,
      "componentType": 5125,
      "count": 201228,
      "type": "SCALAR"
    },
    {
      "bufferView": 2,
      "byteOffset": 980232,
      "componentType": 5126,
      "count": 913,
      "max": [
        1.42917001247406,
        0.5153999924659729,
        4.5064802169799805
      ],
      "min": [
        -1.71983003616333,
        -0.504610002040863,
        1.3695000410079956
      ],
      "type": "VEC3"
    },
    {
      "bufferView": 2,
      "byteOffset": 991188,
      "componentType": 5126,
      "count": 913,
      "max": [
        0.9895716905593872,
        0.9966722130775452,
        0.9644202589988708
      ],
      "min": [
        -0.9895716905593872,
        -0.9999359846115112,
        -0.9967420101165771
      ],
      "type": "VEC3"
    },
    {
      "bufferView": 1,
      "byteOffset": 326744,
      "componentType": 5126,
      "count": 913,
      "max": [
        0.9476500153541565,
        0.9699699878692627
      ],
      "min": [
        0.5563300251960754,
        0.05462000146508217
      ],
      "type": "VEC2"
    },
    {
      "bufferView": 0,
      "byteOffset": 804912,
      "componentType": 5125,
      "count": 3102,
      "type": "SCALAR"
    }
  ],
  "asset": {
    "extras": {
      "author": "procyonlotor (https://sketchfab.com/procyonlotor)",
      "license": "CC-BY-4.0 (http://creativecommons.org/licenses/by/4.0/)",
      "source": "https://sketchfab.com/3d-models/samus-3e8141803fc547909e4d68599a18532a",
      "title": "Samus"
    },
    "generator": "Sketchfab-12.66.0",
    "version": "2.0"
  },
  "bufferViews": [
    {
      "buffer": 0,
      "byteLength": 817320,
      "name": "floatBufferViews",
      "target": 34963
    },
    {
      "buffer": 0,
      "byteLength": 334048,
      "byteOffset": 817320,
      "byteStride": 8,
      "name": "floatBufferViews",
      "target": 34962
    },
    {
      "buffer": 0,
      "byteLength": 1002144,
      "byteOffset": 1151368,
      "byteStride": 12,
      "name": "floatBufferViews",
      "target": 34962
    },
    {
      "buffer": 0,
      "byteLength": 653488,
      "byteOffset": 2153512,
      "byteStride": 16,
      "name": "floatBufferViews",
      "target": 34962
    }
  ],
  "buffers": [
    {
      "byteLength": 2807000,
      "uri": "scene.bin"
    }
  ],
  "images": [
    {
      "uri": "textures/base_baseColor.png"
    },
    {
      "uri": "textures/base_metallicRoughness.png"
    },
    {
      "uri": "textures/base_normal.png"
    }
  ],
  "materials": [
    {
      "doubleSided": true,
      "name": "base",
      "normalTexture": {
        "index": 2,
        "scale": 0.28139801421544486
      },
      "pbrMetallicRoughness": {
        "baseColorFactor": [
          0.6279678845253513,
          0.6279678845253513,
          0.6279678845253513,
          1.0
        ],
        "baseColorTexture": {
          "index": 0
        },
        "metallicFactor": 0.0,
        "metallicRoughnessTexture": {
          "index": 1
        }
      }
    },
    {
      "doubleSided": true,
      "emissiveFactor": [
        0.1381451790804501,
        1.0,
        1.0
      ],
      "name": "emission",
      "pbrMetallicRoughness": {
        "roughnessFactor": 0.6
      }
    }
  ],
  "meshes": [
    {
      "name": "samus_0",
      "primitives": [
        {
          "attributes": {
            "NORMAL": 1,
            "POSITION": 0,
            "TANGENT": 2,
            "TEXCOORD_0": 3
          },
          "indices": 4,
          "material": 0,
          "mode": 4
        }
      ]
    },
    {
      "name": "samus_1",
      "primitives": [
        {
          "attributes": {
            "NORMAL": 6,
            "POSITION": 5,
            "TEXCOORD_0": 7
          },
          "indices": 8,
          "material": 1,
          "mode": 4
        }
      ]
    }
  ],
  "nodes": [
    {
      "children": [
        1
      ],
      "matrix": [
        1.0,
        0.0,
        0.0,
        0.0,
        0.0,
        2.220446049250313e-16,
        -1.0,
        0.0,
        0.0,
        1.0,
        2.220446049250313e-16,
        0.0,
        0.0,
        0.0,
        0.0,
        1.0
      ],
      "name": "Sketchfab_model"
    },
    {
      "children": [
        2
      ],
      "name": "Root"
    },
    {
      "children": [
        3,
        4
      ],
      "name": "samus"
    },
    {
      "mesh": 0,
      "name": "samus_0"
    },
    {
      "mesh": 1,
      "name": "samus_1"
    }
  ],
  "samplers": [
    {
      "magFilter": 9729,
      "minFilter": 9987,
      "wrapS": 10497,
      "wrapT": 10497
    }
  ],
  "scene": 0,
  "scenes": [
    {
      "name": "Sketchfab_Scene",
      "nodes": [
        0
      ]
    }
  ],
  "textures": [
    {
      "sampler": 0,
      "source": 0
    },
    {
      "sampler": 0,
      "source": 1
    },
    {
      "sampler": 0,
      "source": 2
    }
  ]
}
