{
	"asset":{
		"generator":"Khronos glTF Blender I/O v3.5.30",
		"version":"2.0"
	},
	"scene":0,
	"scenes":[
		{
			"name":"Scene",
			"nodes":[
				0
			]
		}
	],
	"nodes":[
		{
			"mesh":0,
			"name":"Cube"
		}
	],
	"materials":[
		{
			"doubleSided":true,
			"name":"Material",
			"pbrMetallicRoughness":{
				"baseColorFactor":[
					0.800000011920929,
					0.800000011920929,
					0.800000011920929,
					1
				],
				"metallicFactor":0,
				"roughnessFactor":0.5
			}
		}
	],
	"meshes":[
		{
			"name":"Cube",
			"primitives":[
				{
					"attributes":{
						"POSITION":0,
						"TEXCOORD_0":1,
						"NORMAL":2
					},
					"indices":3,
					"material":0
				}
			]
		}
	],
	"accessors":[
		{
			"bufferView":0,
			"componentType":5126,
			"count":112,
			"max":[
				1.9674553871154785,
				1.700885534286499,
				1
			],
			"min":[
				-1.4736461639404297,
				-1.7402160167694092,
				-2.0921988487243652
			],
			"type":"VEC3"
		},
		{
			"bufferView":1,
			"componentType":5126,
			"count":112,
			"type":"VEC2"
		},
		{
			"bufferView":2,
			"componentType":5126,
			"count":112,
			"type":"VEC3"
		},
		{
			"bufferView":3,
			"componentType":5123,
			"count":252,
			"type":"SCALAR"
		}
	],
	"bufferViews":[
		{
			"buffer":0,
			"byteLength":1344,
			"byteOffset":0,
			"target":34962
		},
		{
			"buffer":0,
			"byteLength":896,
			"byteOffset":1344,
			"target":34962
		},
		{
			"buffer":0,
			"byteLength":1344,
			"byteOffset":2240,
			"target":34962
		},
		{
			"buffer":0,
			"byteLength":504,
			"byteOffset":3584,
			"target":34963
		}
	],
	"buffers":[
		{
			"byteLength":4088,
			"uri":"data:application/octet-stream;base64,"
		}
	]
}
